# xmcd
#
# Track frame offsets:
#	150
#	22575
#	46720
#	71995
#	94720
#	101185
#	133420
#	148735
#	166690
#	194375
#	217990
#
# Disc length: 3185 seconds
#
# Revision: 2
# Processed by: cddbd v1.5.1PL2 Copyright (c) Steve Scherf et al.
# Submitted via: EasyCDDAExtractor 8.0.2.1
#
DISCID=990c6f0b
DTITLE=Dio - Paradiso Amsterdam 03-03-97
DYEAR=1997
DGENRE=Hard Rock
TTITLE0=Jesus Mary and The holy Ghost
TTITLE1=Straight Through The Heart
TTITLE2=Don't Talk To Strangers
TTITLE3=Holy Diver
TTITLE4=Drum Solo
TTITLE5=Heaven and Hell
TTITLE6=Double Monday
TTITLE7=Stand Up And Shout
TTITLE8=Hunter Of The Heart
TTITLE9=Rainbow In The Dark
TTITLE10=The Mob Rules
EXTD=
EXTT0=
EXTT1=
EXTT2=
EXTT3=
EXTT4=
EXTT5=
EXTT6=
EXTT7=
EXTT8=
EXTT9=
EXTT10=
PLAYORDER=
